<svg id="Capa_3" data-name="Capa 3" xmlns="http://www.w3.org/2000/svg" xmlns:xlink="http://www.w3.org/1999/xlink" viewBox="0 0 667 1194.9669"><defs><style>.cls-1{fill:url(#Degradado_sin_nombre_7);}</style><linearGradient id="Degradado_sin_nombre_7" x1="385.4631" y1="1280.2784" x2="385.4631" y2="85.3115" gradientUnits="userSpaceOnUse"><stop offset="0" stop-color="#fff"/><stop offset="0" stop-color="#3d9960"/><stop offset="1"/></linearGradient></defs><title>negro_arriba_verde_abajo</title><path class="cls-1" d="M385.9631,1280.2784h-1c-1.0039-3.3048-2.5-6.5486-2.9192-9.9259-1.2494-10.0786-2.2284-20.1975-3.0422-30.3224-4.3956-54.6832-11.3558-108.9718-24.08-162.4281-18.0751-75.9356-47.2593-146.9573-92.854-210.7375C209.1854,792.89,142.0182,736.6959,57.1126,702.68a44.8015,44.8015,0,0,0-5.15-1.4015v-12a22.8915,22.8915,0,0,0,1.2665-4.4126c4.6-56.1278,8.8162-112.2891,13.7947-168.3829,4.61-51.94,9.97-103.8131,15.15-155.7008.778-7.7935,2.373-15.5055,3.59-23.2553l1.4314-.0017c.5791,2.1918,1.3463,4.3532,1.7062,6.58,2.0723,12.8226,4.2609,25.6318,6.0194,38.4989,7.1045,51.9852,13.6061,104.0578,21.2589,155.9612,4.373,29.66,10.9618,58.9492,21.5986,87.1427.6179,1.638,1.3828,3.22,2.06,4.7834,7.8912-2.886,15.0342-6.73,22.6079-7.995,13.0854-2.1862,17.6715-10.249,20.7848-22.0236,11.874-44.9079,19.0966-90.6469,24.479-136.63,8.7345-74.6219,16.2687-149.3841,24.3769-224.08,1.3812-12.7245,3.0984-25.4125,4.66-38.1173a13.9084,13.9084,0,0,1,2.2606,6.7647c6.3407,66.0054,11.9666,132.0887,19.188,197.9973,5.5493,50.6475,12.86,101.11,19.9308,151.5779,1.81,12.918,5.681,25.5473,8.4711,37.7247a12.468,12.468,0,0,0,2.1935.5586c8.1328-.7007,16.2669-1.3892,24.3939-2.1527,5.1032-.4794,11.608.6282,14.8975-2.0975,3.3279-2.7577,3.6349-9.3171,4.9792-14.2885C346.7226,527.212,354.1392,475.5517,358.5481,423.6c6.7335-79.3445,11.6666-158.8413,17.4576-238.2667q3.2706-44.8567,7.037-89.6765c.2913-3.5027,1.8591-6.8992,2.8352-10.3449,1.03,6.2344,2.5544,12.433,3.01,18.7092,2.7892,38.3818,5.6182,76.7643,7.9056,115.1781,4.9024,82.3293,9.7632,164.6577,20.2135,246.5258,4.9166,38.5171,10.9694,76.8411,21.3831,114.335,3.5391,12.7423,3.619,12.7342,16.6859,13.8585,9.4021.809,18.808,1.5729,28.9411,2.4178,2.6942-11.3521,5.7389-22.2568,7.8376-33.3407,12.3825-65.3966,18.5735-131.5955,25.0769-197.7406,4.9719-50.5674,9.5057-101.1778,14.2545-151.7672.3234-3.4448.8157-6.8737,1.23-10.31l1.4765-.115c.36,1.8595.8532,3.7043,1.0588,5.5807,3.3194,30.3027,6.7995,60.5894,9.8541,90.919,7.3953,73.4284,14.62,146.8767,26.226,219.7972,4.896,30.7626,10.3823,61.4121,19.853,91.2041,1.5581,4.901,3.9553,7.5462,9.08,9.0432,10.4735,3.0592,20.6734,7.0551,31.6837,10.91,3.1409-9.6828,6.5742-19.0539,9.2248-28.6415,13.9847-50.5846,20.4036-102.5127,27.1143-154.3865q6.3786-49.3062,12.9925-98.5818c.5166-3.8559,1.6725-7.6262,2.532-11.4362l1.476.0769c.9829,5.7991,2.3186,11.5634,2.8946,17.4026,6.1,61.8353,12.3846,123.6548,17.9927,185.5353,4.3606,48.1156,7.8273,96.3122,11.7486,144.468a20.5109,20.5109,0,0,0,1.3393,4.3255v12a36.5277,36.5277,0,0,0-4.6584,1.1836,426.6985,426.6985,0,0,0-69.0894,34.7168c-70.8906,44.18-124.9346,104.2553-166.1789,176.3631-40.8477,71.4142-63.6566,148.9295-75.7871,229.7008-5.8818,39.1639-8.8532,78.7619-13.3588,118.1386C389.1621,1267.7468,387.3008,1273.9826,385.9631,1280.2784Z" transform="translate(-51.9631 -85.3115)"/></svg>